<svg xmlns="http://www.w3.org/2000/svg" width="54" height="53.989" viewBox="0 0 54 53.989"><path id="how_it_work_icon_1" d="M137.4,133.908a2.765,2.765,0,1,0,2.517,2.754A2.641,2.641,0,0,0,137.4,133.908Zm-33.791,0a2.765,2.765,0,1,0,2.512,2.754A2.645,2.645,0,0,0,103.6,133.908Zm-2.378-8.368h38.547l-3.95-11.33a4.356,4.356,0,0,0-1.4-2.031,3.358,3.358,0,0,0-2.08-.719H108.654a3.358,3.358,0,0,0-2.08.719,4.358,4.358,0,0,0-1.4,2.031Zm40.288-5.559,1.284,3.673h1.02a.221.221,0,0,0,.164-.078.277.277,0,0,0,.075-.185v-3.146a.275.275,0,0,0-.075-.185.222.222,0,0,0-.164-.079ZM98.2,123.654l1.284-3.673h-2.3a.231.231,0,0,0-.169.079.3.3,0,0,0-.07.185v3.146a.3.3,0,0,0,.07.185.24.24,0,0,0,.169.078Zm22.3,11.653c-6.647,0-12.035,5.9-12.035,13.185a14.226,14.226,0,0,0,.965,5.184l2.99-3.278a9.686,9.686,0,0,1-.119-2.785,8.523,8.523,0,0,1,6.647-7.65,7.475,7.475,0,0,1,5.756,1.385l-5.831,3.689v4.419l3.493,2.209,5.831-3.689a9.19,9.19,0,0,1-2.319,6.8,7.526,7.526,0,0,1-7.288,2.374l-3.06,3.351a11.1,11.1,0,0,0,4.97,1.174c6.647,0,12.035-5.9,12.035-13.185s-5.388-13.185-12.035-13.185ZM97.182,146.372a6.6,6.6,0,0,1-2.512-5.252v-7a14.177,14.177,0,0,1,.91-5.136l.627-1.705a3.637,3.637,0,0,1-1.627-1.039,4.226,4.226,0,0,1-1.08-2.852v-3.146a4.225,4.225,0,0,1,1.08-2.852,3.517,3.517,0,0,1,2.6-1.184H100.8l1.164-3.34a8.048,8.048,0,0,1,2.622-3.754,6.558,6.558,0,0,1,4.07-1.426h23.691a6.568,6.568,0,0,1,4.07,1.426,8.049,8.049,0,0,1,2.622,3.754l1.164,3.34h3.617a3.527,3.527,0,0,1,2.6,1.184,4.225,4.225,0,0,1,1.08,2.852v3.146a4.226,4.226,0,0,1-1.08,2.852,3.664,3.664,0,0,1-1.627,1.039l.627,1.705a14.174,14.174,0,0,1,.91,5.136v7a6.6,6.6,0,0,1-2.512,5.252v7.73a1.6,1.6,0,0,1-1.517,1.662h-5.045a1.6,1.6,0,0,1-1.517-1.662v-2.613a18.556,18.556,0,0,0,.239-3c0-9.365-6.93-16.957-15.478-16.957s-15.478,7.593-15.478,16.957a18.527,18.527,0,0,0,.239,3V154.1a1.6,1.6,0,0,1-1.517,1.662H98.7a1.6,1.6,0,0,1-1.517-1.662v-7.729Z" transform="translate(-93.5 -107.688)" fill="#090909" fill-rule="evenodd"></path></svg>