<svg xmlns="http://www.w3.org/2000/svg" xmlns:xlink="http://www.w3.org/1999/xlink" width="90.81" height="90.991" viewBox="0 0 90.81 90.991"><defs><clipPath id="clip-path"><path id="Path_63320" data-name="Path 63320" d="M8972.25-1211.235l3.145,17.288,16.769,4.455,10.221,10.481,3.668,15.2h20.176s-3.669-31.182-13.1-38.256-36.685-13.6-37.731-11.5A4.339,4.339,0,0,1,8972.25-1211.235Z" transform="translate(-8972.25 1213.972)" fill="#fff"></path></clipPath></defs><g id="client_satisfaction" transform="translate(-1036.367 -1220.679)"><path id="Path_63321" data-name="Path 63321" d="M121.189,91.644A41.006,41.006,0,1,0,167.6,138.052H151.332a25.024,25.024,0,0,0-30.143-30.142V91.644ZM142.3,153.211a2.908,2.908,0,0,1,2.907,2.908v5.225a2.908,2.908,0,0,1-5.816,0v-5.225A2.908,2.908,0,0,1,142.3,153.211Zm8.45-10.451a2.9,2.9,0,0,1,3.953,1.068l2.612,4.525a2.9,2.9,0,0,1-5.021,2.886l-2.612-4.525A2.9,2.9,0,0,1,150.753,142.76ZM95.591,128.419l4.525,2.613a2.9,2.9,0,0,1-2.885,5.021l-4.525-2.613a2.9,2.9,0,1,1,2.886-5.021ZM97.9,144.625h5.225a2.908,2.908,0,0,1,0,5.816H97.9a2.908,2.908,0,0,1,0-5.816ZM108,157.528l4.526-2.613a2.9,2.9,0,0,1,2.886,5.021l-4.525,2.612a2.9,2.9,0,1,1-2.886-5.02ZM97.76,112.165a2.9,2.9,0,0,1,3.954,1.068l2.612,4.525a2.9,2.9,0,1,1-5.02,2.885l-2.613-4.526a2.9,2.9,0,0,1,1.067-3.953Zm13.947-11.946a2.908,2.908,0,0,1,2.908,2.908v5.225a2.908,2.908,0,1,1-5.816,0v-5.225A2.908,2.908,0,0,1,111.707,100.219ZM125.8,159.114a2.9,2.9,0,0,1,5.021,2.908l-2.613,4.526a2.9,2.9,0,0,1-5.021-2.909Zm1.2-47.064a20.185,20.185,0,1,1-20.185,20.185A20.186,20.186,0,0,1,127.005,112.05Zm0-26.05a46.236,46.236,0,0,1,46.236,46.236H157.829a30.828,30.828,0,0,0-30.824-30.824Zm0,36.06a10.175,10.175,0,1,1-10.175,10.175A10.176,10.176,0,0,1,127.005,122.06Z" transform="translate(951.366 1137.43)" fill="none" stroke="rgba(7,77,177,0.3)" stroke-width="2" fill-rule="evenodd"></path><g id="Mask_Group_103" data-name="Mask Group 103" transform="translate(1073.199 1220.679)" clip-path="url(#clip-path)"><path id="Path_54440" data-name="Path 54440" d="M120.914,91.6a40.685,40.685,0,1,0,46.045,46.045H150.821a24.828,24.828,0,0,0-29.907-29.906V91.6Zm20.949,61.086a2.885,2.885,0,0,1,2.884,2.885v5.184a2.885,2.885,0,0,1-5.77,0v-5.184A2.885,2.885,0,0,1,141.863,152.686Zm8.384-10.369a2.873,2.873,0,0,1,3.922,1.06l2.592,4.49a2.873,2.873,0,0,1-4.982,2.863l-2.592-4.49A2.872,2.872,0,0,1,150.246,142.316ZM95.516,128.087l4.49,2.593a2.873,2.873,0,0,1-2.863,4.982l-4.49-2.593a2.873,2.873,0,1,1,2.863-4.982Zm2.288,16.08h5.184a2.885,2.885,0,0,1,0,5.77H97.8a2.885,2.885,0,0,1,0-5.77Zm10.027,12.8,4.49-2.592a2.873,2.873,0,0,1,2.863,4.982l-4.49,2.592a2.873,2.873,0,1,1-2.864-4.981ZM97.668,111.961a2.874,2.874,0,0,1,3.923,1.06l2.592,4.49a2.872,2.872,0,1,1-4.981,2.863l-2.592-4.491a2.872,2.872,0,0,1,1.059-3.922Zm13.838-11.853a2.885,2.885,0,0,1,2.885,2.885v5.184a2.885,2.885,0,1,1-5.77,0v-5.184A2.885,2.885,0,0,1,111.506,100.108Zm13.983,58.434a2.878,2.878,0,0,1,4.982,2.885l-2.592,4.491a2.879,2.879,0,0,1-4.982-2.886Zm1.195-46.7a20.028,20.028,0,1,1-20.028,20.028A20.028,20.028,0,0,1,126.685,111.847Zm0-25.847a45.874,45.874,0,0,1,45.874,45.874H157.267a30.587,30.587,0,0,0-30.583-30.583Zm0,35.778a10.1,10.1,0,1,1-10.1,10.1A10.1,10.1,0,0,1,126.685,121.778Z" transform="translate(-121.222 -83.263)" fill="none" stroke="#074db1" stroke-width="2" fill-rule="evenodd"></path></g></g></svg>