<svg xmlns="http://www.w3.org/2000/svg" width="54" height="43.887" viewBox="0 0 54 43.887"><path id="how_it_work_icon_2" d="M118.779,147.86v5.184a1.722,1.722,0,0,0,3.445,0V147.86a1.722,1.722,0,0,0-3.445,0Zm6.881,0v5.184a1.722,1.722,0,1,0,3.444,0V147.86a1.722,1.722,0,1,0-3.444,0Zm-13.762,0v5.184a1.722,1.722,0,1,0,3.443,0V147.86a1.722,1.722,0,1,0-3.443,0Zm25.5.006a2.514,2.514,0,1,0,2.513,2.514A2.514,2.514,0,0,0,137.4,147.867Zm-33.794,0a2.514,2.514,0,1,0,2.513,2.514A2.513,2.513,0,0,0,103.6,147.867Zm-2.374-7.638h38.542l-3.947-10.344a4,4,0,0,0-1.4-1.854,3.563,3.563,0,0,0-2.08-.656H108.655a3.564,3.564,0,0,0-2.08.656,4,4,0,0,0-1.4,1.854Zm40.286-5.075,1.284,3.353h1.02a.23.23,0,0,0,.164-.072.24.24,0,0,0,.075-.168v-2.873a.242.242,0,0,0-.075-.169.23.23,0,0,0-.164-.072ZM98.2,138.507l1.281-3.353h-2.3a.245.245,0,0,0-.241.24v2.873a.246.246,0,0,0,.241.24H98.2Zm-1.018,20.739a5.839,5.839,0,0,1-2.512-4.794v-6.388a11.989,11.989,0,0,1,.907-4.689l.626-1.557a3.695,3.695,0,0,1-2.705-3.551v-2.873a3.69,3.69,0,0,1,3.685-3.684H100.8l1.165-3.049a7.431,7.431,0,0,1,2.621-3.428,6.985,6.985,0,0,1,4.071-1.3h23.692a6.986,6.986,0,0,1,4.071,1.3,7.433,7.433,0,0,1,2.621,3.428l1.165,3.049h3.615a3.688,3.688,0,0,1,3.682,3.684v2.873a3.673,3.673,0,0,1-1.08,2.6,3.723,3.723,0,0,1-1.627.949l.627,1.556a11.938,11.938,0,0,1,.911,4.689v6.388a5.851,5.851,0,0,1-2.512,4.794V166.3a1.52,1.52,0,0,1-1.517,1.517h-5.045a1.52,1.52,0,0,1-1.516-1.517V160.29H105.262V166.3a1.52,1.52,0,0,1-1.517,1.517H98.7a1.52,1.52,0,0,1-1.516-1.517v-7.056Z" transform="translate(-93.501 -123.931)" fill="#090909" fill-rule="evenodd"></path></svg>