<svg xmlns="http://www.w3.org/2000/svg" width="54" height="53.734" viewBox="0 0 54 53.734"><path id="how_it_work_icon_3" d="M122.7,121.366V116.6h4.765v4.765Zm0,11.233v-4.765h4.765V132.6Zm0,11.234v-4.765h4.765v4.765Zm19.784-26.649h-9.413a1.8,1.8,0,0,0,0,3.6h9.413a1.8,1.8,0,0,0,0-3.6Zm3.241-3.386h-25.5v32.476H132.96a18.374,18.374,0,0,1,1.6-14.257h-1.016a1.8,1.8,0,0,1,0-3.6h3.677a18.325,18.325,0,0,1,8.505-5.086V113.8Zm4.8,12.753a14.473,14.473,0,1,1-6.534,27.391l4.5-4.5a8.5,8.5,0,0,0,10.235-8.923l-6.212,3.588-3.721-2.148v-4.3l6.214-3.587a8.5,8.5,0,0,0-13.083,8.8l-4.435,4.436a14.479,14.479,0,0,1,13.039-20.762ZM139.7,155.5a18.178,18.178,0,0,1-4.935-5.622H116.623V110.2h5.058v-5.623H113.25a2.254,2.254,0,0,0-2.25,2.249v46.424a2.254,2.254,0,0,0,2.25,2.249H139.7Zm8.435-32.389V110.2h-5.058v-5.623h8.432a2.253,2.253,0,0,1,2.248,2.249v16.416a18.2,18.2,0,0,0-5.622-.131ZM139.478,110.2h-14.2v-5.623h3.7a3.458,3.458,0,0,1,6.794,0h3.7Z" transform="translate(-111 -101.763)" fill="#090909" fill-rule="evenodd"></path></svg>