<svg xmlns="http://www.w3.org/2000/svg" width="54" height="49.14" viewBox="0 0 54 49.14"><path d="M131.941,119.432a1.793,1.793,0,1,1,2.826-2.208l1.7,2.179,5.476-5.6a1.8,1.8,0,1,1,2.562,2.517l-6.911,7.062h0a1.794,1.794,0,0,1-2.692-.154ZM118.61,137.439v5.151a1.711,1.711,0,1,0,3.422,0v-5.151a1.711,1.711,0,0,0-3.422,0Zm6.836,0v5.151a1.71,1.71,0,1,0,3.421,0v-5.151a1.71,1.71,0,1,0-3.421,0Zm-13.671,0v5.151a1.71,1.71,0,1,0,3.421,0v-5.151a1.71,1.71,0,1,0-3.421,0Zm25.331.006a2.5,2.5,0,1,0,2.5,2.5A2.5,2.5,0,0,0,137.106,137.445Zm-33.571,0a2.5,2.5,0,1,0,2.5,2.5A2.5,2.5,0,0,0,103.535,137.445Zm-5.364-9.3,1.271-3.331H97.159a.244.244,0,0,0-.238.239v2.853a.238.238,0,0,0,.072.168.235.235,0,0,0,.167.072Zm-1.013,20.6v7.009a1.51,1.51,0,0,0,1.507,1.508h5.009a1.51,1.51,0,0,0,1.507-1.508v-5.971h30.277v5.971a1.51,1.51,0,0,0,1.506,1.508h5.008a1.51,1.51,0,0,0,1.508-1.508v-7.009a5.8,5.8,0,0,0,2.5-4.762V137.64a11.961,11.961,0,0,0-.9-4.658l-.2-.492a22.122,22.122,0,0,1-6,3.109l-1.3.462-1.3-.462a18.6,18.6,0,0,1-8.693-5.742H101.177l3.922-10.275a3.98,3.98,0,0,1,1.388-1.841,3.543,3.543,0,0,1,2.067-.652h15.319c-.05-1.139-.063-2.281-.055-3.421H108.553a6.936,6.936,0,0,0-4.045,1.294,7.381,7.381,0,0,0-2.6,3.4l-1.156,3.029H97.159a3.666,3.666,0,0,0-3.66,3.66v2.853a3.671,3.671,0,0,0,2.687,3.529l-.621,1.546a11.917,11.917,0,0,0-.9,4.658v6.347a5.8,5.8,0,0,0,2.5,4.762Zm40.426-16.783c2.794-1,5.527-2.434,7.269-4.914a14.749,14.749,0,0,0,2.279-6.546,56.053,56.053,0,0,0,.323-9.06l-9.871-3.32-9.87,3.32a56.148,56.148,0,0,0,.324,9.06,14.773,14.773,0,0,0,2.278,6.546C132.057,129.531,134.791,130.969,137.586,131.966Z" transform="translate(-93.499 -108.126)" fill="#090909" fill-rule="evenodd"></path></svg>