<svg xmlns="http://www.w3.org/2000/svg" width="43.999" height="31.058" viewBox="0 0 43.999 31.058"><g id="Quotemarks-left" transform="translate(-0.001 -9.412)"><path id="Path_34512" data-name="Path 34512" d="M45.907,20.971c-.089-.958-.021-3.562,2.474-7.184a.687.687,0,0,0-.08-.876c-1.017-1.017-1.647-1.659-2.089-2.108-.581-.592-.846-.862-1.234-1.214a.689.689,0,0,0-.913-.009,26.349,26.349,0,0,0-8.48,21.182C36,36.388,40.1,40.47,45.341,40.47a9.758,9.758,0,0,0,.566-19.5ZM45.341,39.1c-4.5,0-8.028-3.546-8.384-8.432h0A25.127,25.127,0,0,1,44.51,11.038c.189.186.4.4.722.728.383.389.906.922,1.7,1.717-3.029,4.666-2.457,7.991-2.207,8.467a.712.712,0,0,0,.618.379,8.383,8.383,0,1,1,0,16.765Z" transform="translate(-11.099)" fill="#61686e"></path><path id="Path_34513" data-name="Path 34513" d="M10.391,20.971c-.089-.955-.024-3.558,2.474-7.184a.688.688,0,0,0-.08-.876C11.77,11.9,11.141,11.255,10.7,10.806c-.583-.594-.849-.864-1.237-1.217A.691.691,0,0,0,8.55,9.58,26.353,26.353,0,0,0,.068,30.763h0c.411,5.624,4.514,9.707,9.757,9.707a9.758,9.758,0,0,0,.565-19.5ZM9.826,39.1c-4.5,0-8.029-3.546-8.386-8.433h0A25.129,25.129,0,0,1,8.994,11.038c.189.186.406.406.724.73.382.389.905.922,1.7,1.715-3.029,4.667-2.457,7.991-2.207,8.467a.714.714,0,0,0,.618.379,8.383,8.383,0,1,1,0,16.765Z" transform="translate(0 0)" fill="#61686e"></path></g></svg>