<svg xmlns="http://www.w3.org/2000/svg" width="41.997" height="42" viewBox="0 0 41.997 42"><path id="why_choose_icon_2" d="M106.174,107.177V109.7a.836.836,0,1,0,1.672,0v-2.521a.836.836,0,1,0-1.672,0Zm3.343,0V109.7a.838.838,0,0,0,1.675,0v-2.521a.838.838,0,0,0-1.675,0Zm-6.69,0V109.7a.838.838,0,0,0,1.676,0v-2.521a.838.838,0,0,0-1.676,0Zm12.4,0a1.222,1.222,0,1,0,1.223,1.221A1.221,1.221,0,0,0,115.225,107.181Zm-16.43,0a1.222,1.222,0,1,0,1.223,1.221A1.223,1.223,0,0,0,98.8,107.181Zm-1.153-3.714h18.736l-1.919-5.028a1.956,1.956,0,0,0-.677-.9,1.749,1.749,0,0,0-1.014-.319H101.252a1.749,1.749,0,0,0-1.014.319,1.958,1.958,0,0,0-.677.9ZM117.226,101l.623,1.63h.5a.113.113,0,0,0,.081-.035.11.11,0,0,0,.035-.082v-1.4a.118.118,0,0,0-.116-.116Zm-21.054,1.63.623-1.63H95.676a.118.118,0,0,0-.116.116v1.4a.11.11,0,0,0,.035.082.113.113,0,0,0,.081.035h.5ZM117.957,95.3a1.4,1.4,0,1,1,0-2.8h.05A18.208,18.208,0,0,0,90.9,115.482a1.4,1.4,0,1,1-2.473,1.3,21,21,0,0,1,31.761-26.137v-.381a1.4,1.4,0,0,1,2.8,0V93.9a1.4,1.4,0,0,1-1.4,1.4ZM96.013,121.5a18.208,18.208,0,0,0,27.11-22.986,1.4,1.4,0,1,1,2.473-1.3,21,21,0,0,1-31.761,26.137v.381a1.4,1.4,0,0,1-2.8,0V120.1a1.4,1.4,0,0,1,1.4-1.4h3.63a1.4,1.4,0,1,1,0,2.8Zm-.337-8.792a2.834,2.834,0,0,1-1.223-2.33v-3.105a5.829,5.829,0,0,1,.441-2.28l.306-.756a1.8,1.8,0,0,1-.789-.461,1.783,1.783,0,0,1-.526-1.266v-1.4a1.795,1.795,0,0,1,1.792-1.791h1.757L98,97.845a3.6,3.6,0,0,1,1.273-1.666,3.4,3.4,0,0,1,1.981-.632h11.516a3.382,3.382,0,0,1,1.977.632,3.61,3.61,0,0,1,1.277,1.666l.565,1.482h1.757a1.795,1.795,0,0,1,1.792,1.791v1.4a1.783,1.783,0,0,1-.526,1.266,1.806,1.806,0,0,1-.789.461l.306.756a5.829,5.829,0,0,1,.441,2.279v3.105a2.844,2.844,0,0,1-1.223,2.33v3.431a.74.74,0,0,1-.739.737h-2.449a.74.74,0,0,1-.739-.737V113.22H99.6v2.922a.74.74,0,0,1-.739.737H96.411a.736.736,0,0,1-.735-.737Z" transform="translate(-86.011 -86)" fill="#e32920" fill-rule="evenodd"></path></svg>