<svg xmlns="http://www.w3.org/2000/svg" width="42" height="34.198" viewBox="0 0 42 34.198"><path id="why_choose_icon_1" d="M94.821,141.685a1.374,1.374,0,1,1-1.943,0A1.373,1.373,0,0,1,94.821,141.685Zm14.356,0a1.374,1.374,0,1,0,1.943,0A1.373,1.373,0,0,0,109.177,141.685Zm-.812-.811a2.522,2.522,0,1,1,0,3.567A2.524,2.524,0,0,1,108.364,140.874Zm-17.432-17.43a1.374,1.374,0,1,0-1.943,0A1.372,1.372,0,0,0,90.932,123.444Zm.1-9.261-9.364,9.364-.023-.024a2.226,2.226,0,0,1,0-3.144l6.218-6.22a2.229,2.229,0,0,1,3.146,0Zm5.7,18.347-5.054-5.054a3.293,3.293,0,0,0,.971,2.374l-2.341,2.341-6.663-6.663,9.36-9.364,6.667,6.663-2.341,2.341a3.311,3.311,0,0,0-2.376-.969l5.054,5.054Zm13.408,5.079a5.039,5.039,0,1,1-4.814,3.515l-1.354-1.357,3.277-3.278,1.354,1.357A5.049,5.049,0,0,1,110.148,137.608Zm-14.515,3.266a2.522,2.522,0,1,0,0,3.567A2.524,2.524,0,0,0,95.633,140.874Zm17.432-17.43a1.374,1.374,0,1,1,1.943,0A1.372,1.372,0,0,1,113.066,123.444Zm-.1-9.261,9.364,9.364.023-.024a2.226,2.226,0,0,0,0-3.144l-6.218-6.22a2.229,2.229,0,0,0-3.146,0ZM93.85,137.608a5.049,5.049,0,1,0,5.05,5.049,5.147,5.147,0,0,0-.236-1.534l13.648-13.648a3.292,3.292,0,0,1-.971,2.374l2.341,2.341,6.663-6.663-9.364-9.364-6.663,6.663,2.341,2.341a3.3,3.3,0,0,1,2.376-.969L95.386,137.846A5.067,5.067,0,0,0,93.85,137.608Z" transform="translate(-80.999 -113.508)" fill="#e32920" fill-rule="evenodd"></path></svg>